REM MD5 4e75b0f44abd8258acead7ac889e28af
FILE "Jang Jang Koi Shimashow - Lovely Pop 2 in 1 (Japan).bin" BINARY
  TRACK 01 MODE2/2352
    INDEX 01 00:00:00
  TRACK 02 AUDIO
    INDEX 00 65:05:12
    INDEX 01 65:07:12
  TRACK 03 AUDIO
    INDEX 00 66:20:48
    INDEX 01 66:22:48
  TRACK 04 AUDIO
    INDEX 00 67:31:08
    INDEX 01 67:33:08
  TRACK 05 AUDIO
    INDEX 00 68:43:70
    INDEX 01 68:45:70
REM LEADOUT 69:53:57
